<svg xmlns="http://www.w3.org/2000/svg" viewBox="0 0 64 64" role="img" aria-label="AI Productivity">
  <rect width="64" height="64" rx="14" fill="#0b0b0b" />
  <circle cx="32" cy="32" r="22" fill="#ffffff" />
  <path
    d="M21.5 36.5c4.8-1.4 6.7-4.7 5.7-9.8-.2-1 .6-1.8 1.6-1.6 5.2.8 8.3 3.9 9.1 9.1.2 1-.7 1.8-1.6 1.6-5.1-1-8.4.9-9.8 5.7-.3 1-1.6 1.2-2.2.4l-3.2-3.2c-.8-.7-.6-1.9.4-2.2Z"
    fill="none"
    stroke="#0b0b0b"
    stroke-linecap="round"
    stroke-linejoin="round"
    stroke-width="3"
  />
  <path
    d="M42 16.5v8M38 20.5h8M45.5 26.5l4 4M49.5 26.5l-4 4"
    fill="none"
    stroke="#0b0b0b"
    stroke-linecap="round"
    stroke-width="2.5"
  />
</svg>
